<mxfile host="Electron" agent="Mozilla/5.0 (Windows NT 10.0; Win64; x64) AppleWebKit/537.36 (KHTML, like Gecko) draw.io/25.0.2 Chrome/128.0.6613.186 Electron/32.2.5 Safari/537.36" version="25.0.2">
  <diagram name="Seite-1" id="ZbTAyUVMpzpLRNHkgS00">
    <mxGraphModel dx="1038" dy="763" grid="1" gridSize="10" guides="1" tooltips="1" connect="1" arrows="1" fold="1" page="1" pageScale="1" pageWidth="827" pageHeight="1169" math="0" shadow="0">
      <root>
        <mxCell id="0" />
        <mxCell id="1" parent="0" />
        <mxCell id="UGGz3qacBqOqNmaK9mtV-1" value="(a) User" style="swimlane;fontStyle=0;childLayout=stackLayout;horizontal=1;startSize=30;horizontalStack=0;resizeParent=1;resizeParentMax=0;resizeLast=0;collapsible=1;marginBottom=0;whiteSpace=wrap;html=1;" parent="1" vertex="1">
          <mxGeometry x="340" y="150" width="330" height="620" as="geometry" />
        </mxCell>
        <mxCell id="UGGz3qacBqOqNmaK9mtV-2" value="- userID: int" style="text;strokeColor=none;fillColor=none;align=left;verticalAlign=middle;spacingLeft=4;spacingRight=4;overflow=hidden;points=[[0,0.5],[1,0.5]];portConstraint=eastwest;rotatable=0;whiteSpace=wrap;html=1;" parent="UGGz3qacBqOqNmaK9mtV-1" vertex="1">
          <mxGeometry y="30" width="330" height="30" as="geometry" />
        </mxCell>
        <mxCell id="UGGz3qacBqOqNmaK9mtV-3" value="- firstName: String" style="text;strokeColor=none;fillColor=none;align=left;verticalAlign=middle;spacingLeft=4;spacingRight=4;overflow=hidden;points=[[0,0.5],[1,0.5]];portConstraint=eastwest;rotatable=0;whiteSpace=wrap;html=1;" parent="UGGz3qacBqOqNmaK9mtV-1" vertex="1">
          <mxGeometry y="60" width="330" height="30" as="geometry" />
        </mxCell>
        <mxCell id="UGGz3qacBqOqNmaK9mtV-4" value="- lastName: String" style="text;strokeColor=none;fillColor=none;align=left;verticalAlign=middle;spacingLeft=4;spacingRight=4;overflow=hidden;points=[[0,0.5],[1,0.5]];portConstraint=eastwest;rotatable=0;whiteSpace=wrap;html=1;" parent="UGGz3qacBqOqNmaK9mtV-1" vertex="1">
          <mxGeometry y="90" width="330" height="30" as="geometry" />
        </mxCell>
        <mxCell id="b_B-MRHjMn5Xg6RO3LzB-2" value="- username: String" style="text;strokeColor=none;fillColor=none;align=left;verticalAlign=middle;spacingLeft=4;spacingRight=4;overflow=hidden;points=[[0,0.5],[1,0.5]];portConstraint=eastwest;rotatable=0;whiteSpace=wrap;html=1;" parent="UGGz3qacBqOqNmaK9mtV-1" vertex="1">
          <mxGeometry y="120" width="330" height="30" as="geometry" />
        </mxCell>
        <mxCell id="UGGz3qacBqOqNmaK9mtV-5" value="- email: String" style="text;strokeColor=none;fillColor=none;align=left;verticalAlign=middle;spacingLeft=4;spacingRight=4;overflow=hidden;points=[[0,0.5],[1,0.5]];portConstraint=eastwest;rotatable=0;whiteSpace=wrap;html=1;" parent="UGGz3qacBqOqNmaK9mtV-1" vertex="1">
          <mxGeometry y="150" width="330" height="30" as="geometry" />
        </mxCell>
        <mxCell id="UGGz3qacBqOqNmaK9mtV-8" value="- passwordHash: String" style="text;strokeColor=none;fillColor=none;align=left;verticalAlign=middle;spacingLeft=4;spacingRight=4;overflow=hidden;points=[[0,0.5],[1,0.5]];portConstraint=eastwest;rotatable=0;whiteSpace=wrap;html=1;" parent="UGGz3qacBqOqNmaK9mtV-1" vertex="1">
          <mxGeometry y="180" width="330" height="30" as="geometry" />
        </mxCell>
        <mxCell id="UGGz3qacBqOqNmaK9mtV-9" value="- role: enum Role" style="text;strokeColor=none;fillColor=none;align=left;verticalAlign=middle;spacingLeft=4;spacingRight=4;overflow=hidden;points=[[0,0.5],[1,0.5]];portConstraint=eastwest;rotatable=0;whiteSpace=wrap;html=1;" parent="UGGz3qacBqOqNmaK9mtV-1" vertex="1">
          <mxGeometry y="210" width="330" height="30" as="geometry" />
        </mxCell>
        <mxCell id="UGGz3qacBqOqNmaK9mtV-10" value="- totalKm: float" style="text;strokeColor=none;fillColor=none;align=left;verticalAlign=middle;spacingLeft=4;spacingRight=4;overflow=hidden;points=[[0,0.5],[1,0.5]];portConstraint=eastwest;rotatable=0;whiteSpace=wrap;html=1;" parent="UGGz3qacBqOqNmaK9mtV-1" vertex="1">
          <mxGeometry y="240" width="330" height="30" as="geometry" />
        </mxCell>
        <mxCell id="UGGz3qacBqOqNmaK9mtV-11" value="- totalAltitude: int" style="text;strokeColor=none;fillColor=none;align=left;verticalAlign=middle;spacingLeft=4;spacingRight=4;overflow=hidden;points=[[0,0.5],[1,0.5]];portConstraint=eastwest;rotatable=0;whiteSpace=wrap;html=1;" parent="UGGz3qacBqOqNmaK9mtV-1" vertex="1">
          <mxGeometry y="270" width="330" height="30" as="geometry" />
        </mxCell>
        <mxCell id="TD3rTA4_gEk4RtTlKrSq-3" value="" style="line;strokeWidth=1;rotatable=0;dashed=0;labelPosition=right;align=left;verticalAlign=middle;spacingTop=0;spacingLeft=6;points=[];portConstraint=eastwest;" vertex="1" parent="UGGz3qacBqOqNmaK9mtV-1">
          <mxGeometry y="300" width="330" height="10" as="geometry" />
        </mxCell>
        <mxCell id="TD3rTA4_gEk4RtTlKrSq-13" value="+ Nutzer(userID: int, firstName: string, lastName: string, username: string, email: string, password: string, role: enum Role)" style="text;strokeColor=none;fillColor=none;spacingLeft=4;spacingRight=4;overflow=hidden;rotatable=0;points=[[0,0.5],[1,0.5]];portConstraint=eastwest;fontSize=12;whiteSpace=wrap;html=1;" vertex="1" parent="UGGz3qacBqOqNmaK9mtV-1">
          <mxGeometry y="310" width="330" height="50" as="geometry" />
        </mxCell>
        <mxCell id="TD3rTA4_gEk4RtTlKrSq-14" value="" style="line;strokeWidth=1;rotatable=0;dashed=0;labelPosition=right;align=left;verticalAlign=middle;spacingTop=0;spacingLeft=6;points=[];portConstraint=eastwest;" vertex="1" parent="UGGz3qacBqOqNmaK9mtV-1">
          <mxGeometry y="360" width="330" height="20" as="geometry" />
        </mxCell>
        <mxCell id="UGGz3qacBqOqNmaK9mtV-13" value="- Login(username: String, password: String): void" style="text;strokeColor=none;fillColor=none;align=left;verticalAlign=middle;spacingLeft=4;spacingRight=4;overflow=hidden;points=[[0,0.5],[1,0.5]];portConstraint=eastwest;rotatable=0;whiteSpace=wrap;html=1;" parent="UGGz3qacBqOqNmaK9mtV-1" vertex="1">
          <mxGeometry y="380" width="330" height="30" as="geometry" />
        </mxCell>
        <mxCell id="UGGz3qacBqOqNmaK9mtV-14" value="- Logout(): void" style="text;strokeColor=none;fillColor=none;align=left;verticalAlign=middle;spacingLeft=4;spacingRight=4;overflow=hidden;points=[[0,0.5],[1,0.5]];portConstraint=eastwest;rotatable=0;whiteSpace=wrap;html=1;" parent="UGGz3qacBqOqNmaK9mtV-1" vertex="1">
          <mxGeometry y="410" width="330" height="30" as="geometry" />
        </mxCell>
        <mxCell id="UGGz3qacBqOqNmaK9mtV-15" value="- ChangeUsername(string&amp;nbsp; newUsername): void" style="text;strokeColor=none;fillColor=none;align=left;verticalAlign=middle;spacingLeft=4;spacingRight=4;overflow=hidden;points=[[0,0.5],[1,0.5]];portConstraint=eastwest;rotatable=0;whiteSpace=wrap;html=1;" parent="UGGz3qacBqOqNmaK9mtV-1" vertex="1">
          <mxGeometry y="440" width="330" height="30" as="geometry" />
        </mxCell>
        <mxCell id="UGGz3qacBqOqNmaK9mtV-16" value="- ChangePassword(string oldPassword, string newPassword, string confirmPassword): void" style="text;strokeColor=none;fillColor=none;align=left;verticalAlign=middle;spacingLeft=4;spacingRight=4;overflow=hidden;points=[[0,0.5],[1,0.5]];portConstraint=eastwest;rotatable=0;whiteSpace=wrap;html=1;" parent="UGGz3qacBqOqNmaK9mtV-1" vertex="1">
          <mxGeometry y="470" width="330" height="30" as="geometry" />
        </mxCell>
        <mxCell id="UGGz3qacBqOqNmaK9mtV-18" value="- ChangeEmail(string newEmail): void" style="text;strokeColor=none;fillColor=none;align=left;verticalAlign=middle;spacingLeft=4;spacingRight=4;overflow=hidden;points=[[0,0.5],[1,0.5]];portConstraint=eastwest;rotatable=0;whiteSpace=wrap;html=1;" parent="UGGz3qacBqOqNmaK9mtV-1" vertex="1">
          <mxGeometry y="500" width="330" height="30" as="geometry" />
        </mxCell>
        <mxCell id="UGGz3qacBqOqNmaK9mtV-88" value="- GetActivityList(): ActivityList" style="text;strokeColor=none;fillColor=none;align=left;verticalAlign=middle;spacingLeft=4;spacingRight=4;overflow=hidden;points=[[0,0.5],[1,0.5]];portConstraint=eastwest;rotatable=0;whiteSpace=wrap;html=1;" parent="UGGz3qacBqOqNmaK9mtV-1" vertex="1">
          <mxGeometry y="530" width="330" height="30" as="geometry" />
        </mxCell>
        <mxCell id="TD3rTA4_gEk4RtTlKrSq-16" value="+ UpdatetotalKm(value: int): void" style="text;strokeColor=none;fillColor=none;spacingLeft=4;spacingRight=4;overflow=hidden;rotatable=0;points=[[0,0.5],[1,0.5]];portConstraint=eastwest;fontSize=12;whiteSpace=wrap;html=1;" vertex="1" parent="UGGz3qacBqOqNmaK9mtV-1">
          <mxGeometry y="560" width="330" height="30" as="geometry" />
        </mxCell>
        <mxCell id="TD3rTA4_gEk4RtTlKrSq-17" value="+ UpdatetotalAltitude(value: int): void" style="text;strokeColor=none;fillColor=none;spacingLeft=4;spacingRight=4;overflow=hidden;rotatable=0;points=[[0,0.5],[1,0.5]];portConstraint=eastwest;fontSize=12;whiteSpace=wrap;html=1;" vertex="1" parent="UGGz3qacBqOqNmaK9mtV-1">
          <mxGeometry y="590" width="330" height="30" as="geometry" />
        </mxCell>
        <mxCell id="UGGz3qacBqOqNmaK9mtV-21" value="Admin" style="swimlane;fontStyle=0;childLayout=stackLayout;horizontal=1;startSize=30;horizontalStack=0;resizeParent=1;resizeParentMax=0;resizeLast=0;collapsible=1;marginBottom=0;whiteSpace=wrap;html=1;" parent="1" vertex="1">
          <mxGeometry x="560" y="830" width="310" height="180" as="geometry" />
        </mxCell>
        <mxCell id="UGGz3qacBqOqNmaK9mtV-24" value="- UpdateMountain(): void" style="text;strokeColor=none;fillColor=none;align=left;verticalAlign=middle;spacingLeft=4;spacingRight=4;overflow=hidden;points=[[0,0.5],[1,0.5]];portConstraint=eastwest;rotatable=0;whiteSpace=wrap;html=1;" parent="UGGz3qacBqOqNmaK9mtV-21" vertex="1">
          <mxGeometry y="30" width="310" height="30" as="geometry" />
        </mxCell>
        <mxCell id="UGGz3qacBqOqNmaK9mtV-25" value="- DisplayAllUser(): void" style="text;strokeColor=none;fillColor=none;align=left;verticalAlign=middle;spacingLeft=4;spacingRight=4;overflow=hidden;points=[[0,0.5],[1,0.5]];portConstraint=eastwest;rotatable=0;whiteSpace=wrap;html=1;" parent="UGGz3qacBqOqNmaK9mtV-21" vertex="1">
          <mxGeometry y="60" width="310" height="30" as="geometry" />
        </mxCell>
        <mxCell id="UGGz3qacBqOqNmaK9mtV-28" value="- ChangeRoles(role NewRole): void" style="text;strokeColor=none;fillColor=none;align=left;verticalAlign=middle;spacingLeft=4;spacingRight=4;overflow=hidden;points=[[0,0.5],[1,0.5]];portConstraint=eastwest;rotatable=0;whiteSpace=wrap;html=1;" parent="UGGz3qacBqOqNmaK9mtV-21" vertex="1">
          <mxGeometry y="90" width="310" height="30" as="geometry" />
        </mxCell>
        <mxCell id="UGGz3qacBqOqNmaK9mtV-29" value="- EditUser(int userID, string, firstName, string lastName, string Email, string Password, role Role): void" style="text;strokeColor=none;fillColor=none;align=left;verticalAlign=middle;spacingLeft=4;spacingRight=4;overflow=hidden;points=[[0,0.5],[1,0.5]];portConstraint=eastwest;rotatable=0;whiteSpace=wrap;html=1;" parent="UGGz3qacBqOqNmaK9mtV-21" vertex="1">
          <mxGeometry y="120" width="310" height="30" as="geometry" />
        </mxCell>
        <mxCell id="UGGz3qacBqOqNmaK9mtV-32" value="- RemoveUser(): void" style="text;strokeColor=none;fillColor=none;align=left;verticalAlign=middle;spacingLeft=4;spacingRight=4;overflow=hidden;points=[[0,0.5],[1,0.5]];portConstraint=eastwest;rotatable=0;whiteSpace=wrap;html=1;" parent="UGGz3qacBqOqNmaK9mtV-21" vertex="1">
          <mxGeometry y="150" width="310" height="30" as="geometry" />
        </mxCell>
        <mxCell id="UGGz3qacBqOqNmaK9mtV-36" value="NormalUser" style="swimlane;fontStyle=0;childLayout=stackLayout;horizontal=1;startSize=30;horizontalStack=0;resizeParent=1;resizeParentMax=0;resizeLast=0;collapsible=1;marginBottom=0;whiteSpace=wrap;html=1;" parent="1" vertex="1">
          <mxGeometry x="210" y="1000" width="180" height="60" as="geometry" />
        </mxCell>
        <mxCell id="UGGz3qacBqOqNmaK9mtV-62" value="(c) Activity" style="swimlane;fontStyle=0;childLayout=stackLayout;horizontal=1;startSize=30;horizontalStack=0;resizeParent=1;resizeParentMax=0;resizeLast=0;collapsible=1;marginBottom=0;whiteSpace=wrap;html=1;" parent="1" vertex="1">
          <mxGeometry x="970" y="490" width="170" height="340" as="geometry" />
        </mxCell>
        <mxCell id="UGGz3qacBqOqNmaK9mtV-63" value="- activityID: int" style="text;strokeColor=none;fillColor=none;align=left;verticalAlign=middle;spacingLeft=4;spacingRight=4;overflow=hidden;points=[[0,0.5],[1,0.5]];portConstraint=eastwest;rotatable=0;whiteSpace=wrap;html=1;" parent="UGGz3qacBqOqNmaK9mtV-62" vertex="1">
          <mxGeometry y="30" width="170" height="30" as="geometry" />
        </mxCell>
        <mxCell id="UGGz3qacBqOqNmaK9mtV-64" value="- userID: int" style="text;strokeColor=none;fillColor=none;align=left;verticalAlign=middle;spacingLeft=4;spacingRight=4;overflow=hidden;points=[[0,0.5],[1,0.5]];portConstraint=eastwest;rotatable=0;whiteSpace=wrap;html=1;" parent="UGGz3qacBqOqNmaK9mtV-62" vertex="1">
          <mxGeometry y="60" width="170" height="30" as="geometry" />
        </mxCell>
        <mxCell id="UGGz3qacBqOqNmaK9mtV-66" value="- date: string" style="text;strokeColor=none;fillColor=none;align=left;verticalAlign=middle;spacingLeft=4;spacingRight=4;overflow=hidden;points=[[0,0.5],[1,0.5]];portConstraint=eastwest;rotatable=0;whiteSpace=wrap;html=1;" parent="UGGz3qacBqOqNmaK9mtV-62" vertex="1">
          <mxGeometry y="90" width="170" height="30" as="geometry" />
        </mxCell>
        <mxCell id="UGGz3qacBqOqNmaK9mtV-67" value="- duration: double" style="text;strokeColor=none;fillColor=none;align=left;verticalAlign=middle;spacingLeft=4;spacingRight=4;overflow=hidden;points=[[0,0.5],[1,0.5]];portConstraint=eastwest;rotatable=0;whiteSpace=wrap;html=1;" parent="UGGz3qacBqOqNmaK9mtV-62" vertex="1">
          <mxGeometry y="120" width="170" height="30" as="geometry" />
        </mxCell>
        <mxCell id="UGGz3qacBqOqNmaK9mtV-68" value="- heigth: int" style="text;strokeColor=none;fillColor=none;align=left;verticalAlign=middle;spacingLeft=4;spacingRight=4;overflow=hidden;points=[[0,0.5],[1,0.5]];portConstraint=eastwest;rotatable=0;whiteSpace=wrap;html=1;" parent="UGGz3qacBqOqNmaK9mtV-62" vertex="1">
          <mxGeometry y="150" width="170" height="30" as="geometry" />
        </mxCell>
        <mxCell id="UGGz3qacBqOqNmaK9mtV-71" value="- route: int" style="text;align=left;verticalAlign=middle;spacingLeft=4;spacingRight=4;overflow=hidden;points=[[0,0.5],[1,0.5]];portConstraint=eastwest;rotatable=0;whiteSpace=wrap;html=1;" parent="UGGz3qacBqOqNmaK9mtV-62" vertex="1">
          <mxGeometry y="180" width="170" height="30" as="geometry" />
        </mxCell>
        <mxCell id="z9zirwKKxDiTSx7_xv---1" value="-&amp;nbsp; maxAltitude: int" style="text;strokeColor=none;fillColor=none;align=left;verticalAlign=middle;spacingLeft=4;spacingRight=4;overflow=hidden;points=[[0,0.5],[1,0.5]];portConstraint=eastwest;rotatable=0;whiteSpace=wrap;html=1;" parent="UGGz3qacBqOqNmaK9mtV-62" vertex="1">
          <mxGeometry y="210" width="170" height="30" as="geometry" />
        </mxCell>
        <mxCell id="UGGz3qacBqOqNmaK9mtV-72" value="-&amp;nbsp; increase: int" style="text;strokeColor=none;fillColor=none;align=left;verticalAlign=middle;spacingLeft=4;spacingRight=4;overflow=hidden;points=[[0,0.5],[1,0.5]];portConstraint=eastwest;rotatable=0;whiteSpace=wrap;html=1;" parent="UGGz3qacBqOqNmaK9mtV-62" vertex="1">
          <mxGeometry y="240" width="170" height="30" as="geometry" />
        </mxCell>
        <mxCell id="z9zirwKKxDiTSx7_xv---2" value="-&amp;nbsp; kcal: int" style="text;strokeColor=none;fillColor=none;align=left;verticalAlign=middle;spacingLeft=4;spacingRight=4;overflow=hidden;points=[[0,0.5],[1,0.5]];portConstraint=eastwest;rotatable=0;whiteSpace=wrap;html=1;" parent="UGGz3qacBqOqNmaK9mtV-62" vertex="1">
          <mxGeometry y="270" width="170" height="30" as="geometry" />
        </mxCell>
        <mxCell id="TD3rTA4_gEk4RtTlKrSq-20" value="" style="line;strokeWidth=1;rotatable=0;dashed=0;labelPosition=right;align=left;verticalAlign=middle;spacingTop=0;spacingLeft=6;points=[];portConstraint=eastwest;" vertex="1" parent="UGGz3qacBqOqNmaK9mtV-62">
          <mxGeometry y="300" width="170" height="10" as="geometry" />
        </mxCell>
        <mxCell id="UGGz3qacBqOqNmaK9mtV-73" value="+ Get&lt;span style=&quot;text-align: center;&quot;&gt;Activity&lt;/span&gt;(): List" style="text;strokeColor=none;fillColor=none;align=left;verticalAlign=middle;spacingLeft=4;spacingRight=4;overflow=hidden;points=[[0,0.5],[1,0.5]];portConstraint=eastwest;rotatable=0;whiteSpace=wrap;html=1;" parent="UGGz3qacBqOqNmaK9mtV-62" vertex="1">
          <mxGeometry y="310" width="170" height="30" as="geometry" />
        </mxCell>
        <mxCell id="UGGz3qacBqOqNmaK9mtV-75" value="(c) Donelist" style="swimlane;fontStyle=0;childLayout=stackLayout;horizontal=1;startSize=30;horizontalStack=0;resizeParent=1;resizeParentMax=0;resizeLast=0;collapsible=1;marginBottom=0;whiteSpace=wrap;html=1;" parent="1" vertex="1">
          <mxGeometry x="970" y="80" width="170" height="160" as="geometry" />
        </mxCell>
        <mxCell id="UGGz3qacBqOqNmaK9mtV-76" value="- donelistID: int" style="text;strokeColor=none;fillColor=none;align=left;verticalAlign=middle;spacingLeft=4;spacingRight=4;overflow=hidden;points=[[0,0.5],[1,0.5]];portConstraint=eastwest;rotatable=0;whiteSpace=wrap;html=1;" parent="UGGz3qacBqOqNmaK9mtV-75" vertex="1">
          <mxGeometry y="30" width="170" height="30" as="geometry" />
        </mxCell>
        <mxCell id="UGGz3qacBqOqNmaK9mtV-79" value="- date: Date" style="text;strokeColor=none;fillColor=none;align=left;verticalAlign=middle;spacingLeft=4;spacingRight=4;overflow=hidden;points=[[0,0.5],[1,0.5]];portConstraint=eastwest;rotatable=0;whiteSpace=wrap;html=1;" parent="UGGz3qacBqOqNmaK9mtV-75" vertex="1">
          <mxGeometry y="60" width="170" height="30" as="geometry" />
        </mxCell>
        <mxCell id="TD3rTA4_gEk4RtTlKrSq-21" value="" style="line;strokeWidth=1;rotatable=0;dashed=0;labelPosition=right;align=left;verticalAlign=middle;spacingTop=0;spacingLeft=6;points=[];portConstraint=eastwest;" vertex="1" parent="UGGz3qacBqOqNmaK9mtV-75">
          <mxGeometry y="90" width="170" height="10" as="geometry" />
        </mxCell>
        <mxCell id="UGGz3qacBqOqNmaK9mtV-85" value="+ Add(mountainName: String, date: string): void" style="text;strokeColor=none;fillColor=none;align=left;verticalAlign=middle;spacingLeft=4;spacingRight=4;overflow=hidden;points=[[0,0.5],[1,0.5]];portConstraint=eastwest;rotatable=0;whiteSpace=wrap;html=1;" parent="UGGz3qacBqOqNmaK9mtV-75" vertex="1">
          <mxGeometry y="100" width="170" height="30" as="geometry" />
        </mxCell>
        <mxCell id="UGGz3qacBqOqNmaK9mtV-86" value="+ Remove(): void" style="text;strokeColor=none;fillColor=none;align=left;verticalAlign=middle;spacingLeft=4;spacingRight=4;overflow=hidden;points=[[0,0.5],[1,0.5]];portConstraint=eastwest;rotatable=0;whiteSpace=wrap;html=1;" parent="UGGz3qacBqOqNmaK9mtV-75" vertex="1">
          <mxGeometry y="130" width="170" height="30" as="geometry" />
        </mxCell>
        <mxCell id="TD3rTA4_gEk4RtTlKrSq-5" value="(e) Role" style="swimlane;fontStyle=0;childLayout=stackLayout;horizontal=1;startSize=30;horizontalStack=0;resizeParent=1;resizeParentMax=0;resizeLast=0;collapsible=1;marginBottom=0;whiteSpace=wrap;html=1;" vertex="1" parent="1">
          <mxGeometry x="90" y="240" width="140" height="90" as="geometry" />
        </mxCell>
        <mxCell id="TD3rTA4_gEk4RtTlKrSq-6" value="user: 0" style="text;strokeColor=none;fillColor=none;align=left;verticalAlign=middle;spacingLeft=4;spacingRight=4;overflow=hidden;points=[[0,0.5],[1,0.5]];portConstraint=eastwest;rotatable=0;whiteSpace=wrap;html=1;" vertex="1" parent="TD3rTA4_gEk4RtTlKrSq-5">
          <mxGeometry y="30" width="140" height="30" as="geometry" />
        </mxCell>
        <mxCell id="TD3rTA4_gEk4RtTlKrSq-8" value="admin: 1" style="text;strokeColor=none;fillColor=none;align=left;verticalAlign=middle;spacingLeft=4;spacingRight=4;overflow=hidden;points=[[0,0.5],[1,0.5]];portConstraint=eastwest;rotatable=0;whiteSpace=wrap;html=1;" vertex="1" parent="TD3rTA4_gEk4RtTlKrSq-5">
          <mxGeometry y="60" width="140" height="30" as="geometry" />
        </mxCell>
        <mxCell id="TD3rTA4_gEk4RtTlKrSq-18" style="edgeStyle=orthogonalEdgeStyle;rounded=0;orthogonalLoop=1;jettySize=auto;html=1;exitX=0.5;exitY=0;exitDx=0;exitDy=0;entryX=0.456;entryY=1.014;entryDx=0;entryDy=0;entryPerimeter=0;" edge="1" parent="1" source="UGGz3qacBqOqNmaK9mtV-21" target="TD3rTA4_gEk4RtTlKrSq-17">
          <mxGeometry relative="1" as="geometry" />
        </mxCell>
        <mxCell id="TD3rTA4_gEk4RtTlKrSq-19" style="edgeStyle=orthogonalEdgeStyle;rounded=0;orthogonalLoop=1;jettySize=auto;html=1;exitX=0.5;exitY=0;exitDx=0;exitDy=0;entryX=0.454;entryY=0.983;entryDx=0;entryDy=0;entryPerimeter=0;" edge="1" parent="1" source="UGGz3qacBqOqNmaK9mtV-36" target="TD3rTA4_gEk4RtTlKrSq-17">
          <mxGeometry relative="1" as="geometry" />
        </mxCell>
      </root>
    </mxGraphModel>
  </diagram>
</mxfile>
